<?xml version="1.0" encoding="UTF-8"?>
<svg width="400" height="220" xmlns="http://www.w3.org/2000/svg">
  <!-- DAP (Diammonium Phosphate) (NH4)2HPO4 -->
  
  <!-- Title -->
  <text x="200" y="30" font-family="Arial" font-size="16" text-anchor="middle" font-weight="bold">Diammonium Phosphate (DAP)</text>
  
  <!-- Phosphate Group -->
  <circle cx="200" cy="100" r="22" fill="#ff9900" stroke="#000" stroke-width="1" />
  <text x="200" y="105" font-family="Arial" font-size="16" text-anchor="middle" fill="white">P</text>
  
  <!-- Oxygen connected to P (double bond) -->
  <line x1="200" y1="78" x2="200" y2="55" stroke="#f00" stroke-width="5" />
  <circle cx="200" cy="45" r="15" fill="#f00" stroke="#000" stroke-width="1" />
  <text x="200" y="50" font-family="Arial" font-size="16" text-anchor="middle" fill="white">O</text>
  
  <!-- Oxygen connected to P (single bond) top right -->
  <line x1="220" y1="90" x2="250" y2="70" stroke="#f00" stroke-width="3" />
  <circle cx="260" cy="65" r="15" fill="#f00" stroke="#000" stroke-width="1" />
  <text x="260" y="70" font-family="Arial" font-size="16" text-anchor="middle" fill="white">O</text>
  
  <!-- Oxygen connected to P (single bond) bottom right -->
  <line x1="220" y1="110" x2="250" y2="130" stroke="#f00" stroke-width="3" />
  <circle cx="260" cy="135" r="15" fill="#f00" stroke="#000" stroke-width="1" />
  <text x="260" y="140" font-family="Arial" font-size="16" text-anchor="middle" fill="white">O</text>
  
  <!-- OH Group -->
  <line x1="180" y1="110" x2="150" y2="130" stroke="#f00" stroke-width="3" />
  <circle cx="140" cy="135" r="15" fill="#f00" stroke="#000" stroke-width="1" />
  <text x="140" y="140" font-family="Arial" font-size="16" text-anchor="middle" fill="white">O</text>
  
  <line x1="130" y1="145" x2="110" y2="155" stroke="#333" stroke-width="2" />
  <circle cx="100" cy="160" r="12" fill="#fff" stroke="#000" stroke-width="1" />
  <text x="100" y="165" font-family="Arial" font-size="14" text-anchor="middle">H</text>
  
  <!-- NH4 Group 1 -->
  <line x1="270" y1="55" x2="300" y2="45" stroke="#333" stroke-width="3" />
  <circle cx="315" cy="40" r="18" fill="#3366cc" stroke="#000" stroke-width="1" />
  <text x="315" y="45" font-family="Arial" font-size="16" text-anchor="middle" fill="white">N</text>
  
  <line x1="325" y1="30" x2="345" y2="20" stroke="#333" stroke-width="2" />
  <circle cx="355" cy="15" r="12" fill="#fff" stroke="#000" stroke-width="1" />
  <text x="355" y="20" font-family="Arial" font-size="14" text-anchor="middle">H</text>
  
  <line x1="325" y1="50" x2="345" y2="60" stroke="#333" stroke-width="2" />
  <circle cx="355" cy="65" r="12" fill="#fff" stroke="#000" stroke-width="1" />
  <text x="355" y="70" font-family="Arial" font-size="14" text-anchor="middle">H</text>
  
  <line x1="315" y1="25" x2="315" y2="5" stroke="#333" stroke-width="2" />
  <circle cx="315" cy="-5" r="12" fill="#fff" stroke="#000" stroke-width="1" />
  <text x="315" y="0" font-family="Arial" font-size="14" text-anchor="middle">H</text>
  
  <line x1="300" y1="45" x2="285" y2="30" stroke="#333" stroke-width="2" />
  <circle cx="275" cy="25" r="12" fill="#fff" stroke="#000" stroke-width="1" />
  <text x="275" y="30" font-family="Arial" font-size="14" text-anchor="middle">H</text>
  
  <!-- NH4 Group 2 -->
  <line x1="270" y1="145" x2="300" y2="155" stroke="#333" stroke-width="3" />
  <circle cx="315" cy="160" r="18" fill="#3366cc" stroke="#000" stroke-width="1" />
  <text x="315" y="165" font-family="Arial" font-size="16" text-anchor="middle" fill="white">N</text>
  
  <line x1="325" y1="170" x2="345" y2="180" stroke="#333" stroke-width="2" />
  <circle cx="355" cy="185" r="12" fill="#fff" stroke="#000" stroke-width="1" />
  <text x="355" y="190" font-family="Arial" font-size="14" text-anchor="middle">H</text>
  
  <line x1="325" y1="150" x2="345" y2="140" stroke="#333" stroke-width="2" />
  <circle cx="355" cy="135" r="12" fill="#fff" stroke="#000" stroke-width="1" />
  <text x="355" y="140" font-family="Arial" font-size="14" text-anchor="middle">H</text>
  
  <line x1="315" y1="175" x2="315" y2="195" stroke="#333" stroke-width="2" />
  <circle cx="315" cy="205" r="12" fill="#fff" stroke="#000" stroke-width="1" />
  <text x="315" y="210" font-family="Arial" font-size="14" text-anchor="middle">H</text>
  
  <line x1="300" y1="155" x2="285" y2="170" stroke="#333" stroke-width="2" />
  <circle cx="275" cy="175" r="12" fill="#fff" stroke="#000" stroke-width="1" />
  <text x="275" y="180" font-family="Arial" font-size="14" text-anchor="middle">H</text>
  
  <!-- Chemical Formula -->
  <text x="200" y="210" font-family="Arial" font-size="14" text-anchor="middle">Chemical Formula: (NH₄)₂HPO₄</text>
</svg>