<svg xmlns="http://www.w3.org/2000/svg" viewBox="0 0 64 64">
  <path d="M32 2C15.432 2 2 15.432 2 32s13.432 30 30 30 30-13.432 30-30S48.568 2 32 2zm0 55c-13.785 0-25-11.215-25-25S18.215 7 32 7s25 11.215 25 25-11.215 25-25 25z" fill="#4CAF50"/>
  <path d="M31.6 14.5c-10.2 0-18.5 8.3-18.5 18.5 0 2.5.5 4.8 1.4 7l17.1-17.1V14.5h-.3c.1 0 .2 0 .3 0zM48.7 33c0-10.2-8.3-18.5-18.5-18.5h-.3v8.4L12.9 40c2.1 4.1 5.6 7.5 9.9 9.7L48.7 33z" fill="#388E3C"/>
  <path d="M42 31c0 0-4-3-10-3-6 0-10 3-10 3s4 3 10 3 10-3 10-3z" fill="#4CAF50"/>
  <path d="M42 33c-1.2 0-2-.8-2-2s.8-2 2-2c1.1 0 2 .9 2 2s-.9 2-2 2zm-20 0c-1.1 0-2-.9-2-2s.9-2 2-2c1.2 0 2 .8 2 2s-.8 2-2 2z" fill="#1B5E20"/>
</svg>
