<svg xmlns="http://www.w3.org/2000/svg" viewBox="0 0 64 64">
  <circle cx="32" cy="32" r="22" fill="#FFC107"/>
  <circle cx="32" cy="32" r="18" fill="#FFD54F"/>
  <path d="M32 10v44M10 32h44M16.1 16.1l31.8 31.8M16.1 47.9l31.8-31.8" fill="none" stroke="#FF9800" stroke-width="2"/>
  <rect x="14" y="14" width="8" height="8" fill="#03A9F4"/>
  <rect x="42" y="14" width="8" height="8" fill="#03A9F4"/>
  <rect x="14" y="42" width="8" height="8" fill="#03A9F4"/>
  <rect x="42" y="42" width="8" height="8" fill="#03A9F4"/>
  <rect x="28" y="28" width="8" height="8" fill="#03A9F4"/>
  <path d="M32 8V4M56 32h4M32 60v-4M4 32H0" fill="none" stroke="#FF9800" stroke-width="2"/>
  <path d="M44.97 19.03l2.83-2.83M19.03 44.97l-2.83 2.83M44.97 44.97l2.83 2.83M19.03 19.03l-2.83-2.83" fill="none" stroke="#FF9800" stroke-width="2"/>
  <circle cx="32" cy="32" r="12" fill="#FFC107"/>
  <circle cx="32" cy="32" r="6" fill="#FFFFFF"/>
</svg>
